<svg width="293" height="293" viewBox="0 0 293 293" fill="none" xmlns="http://www.w3.org/2000/svg">
<g clip-path="url(#clip0_1_1277)">
<path d="M281.062 192.4C282.225 194.065 282.524 196.188 281.863 198.107C277.013 212.231 270.066 225.293 261.263 236.976C252.46 248.659 241.8 258.956 229.532 267.55C205.715 284.229 177.926 293 149.005 293C148.293 293 144.708 293 143.996 293C115.075 293 87.2854 284.229 63.4683 267.55C38.9333 250.369 20.837 226.354 11.1369 198.107C10.4758 196.187 10.7748 194.064 11.9378 192.4C13.1076 190.734 14.9953 189.73 17.029 189.692C46.9159 189.132 75.6467 197.929 100.182 215.11C116.574 226.59 130.088 241.114 140.143 257.914V193.289C108.159 191.154 78.958 173.14 62.845 145.223C45.6578 115.456 45.6515 78.4567 62.8324 48.6649C63.9638 46.701 66.0675 45.4865 68.3367 45.4865C68.3367 45.4865 68.3367 45.4865 68.343 45.4865C78.5065 45.4928 88.4988 47.082 98.1221 50.2157C107.682 29.6342 123.515 12.2563 143.245 0.853023C145.209 -0.284728 147.638 -0.284728 149.608 0.853023C169.357 12.2752 185.203 29.6852 194.756 50.2919C204.291 47.1708 214.366 45.4928 224.657 45.4865C224.663 45.4865 224.663 45.4865 224.663 45.4865C226.932 45.4865 229.036 46.7005 230.167 48.6712C247.348 78.463 247.342 115.456 230.154 145.223C214.029 173.159 184.815 191.166 152.856 193.296V257.913C162.912 241.113 176.425 226.589 192.818 215.11C217.353 197.929 246.115 189.138 275.97 189.691C278.005 189.729 279.892 190.734 281.062 192.4ZM222.241 257.138C242.034 243.275 257.22 224.537 266.557 202.557C242.709 203.809 219.902 211.665 200.109 225.522C180.316 239.385 165.13 258.13 155.8 280.109C179.648 278.851 202.448 270.994 222.241 257.138ZM219.146 138.867C233.447 114.096 234.045 83.5611 220.945 58.2888C192.507 59.5789 166.357 75.3619 152.062 100.132C137.761 124.903 137.163 155.438 150.263 180.71C178.701 179.419 204.851 163.63 219.146 138.867ZM182.934 55.0468C174.976 38.1771 162.25 23.7616 146.423 13.7819C130.635 23.7358 117.928 38.1072 109.97 54.9323C124.621 61.8859 137.054 72.2466 146.518 85.3662C156.015 72.2907 168.607 61.9243 182.934 55.0468ZM135.942 180.106C124.596 153.556 125.67 122.963 139.171 97.2015C129.649 82.118 115.914 70.7147 99.2536 64.1236C90.5136 60.6594 81.3796 58.7019 72.0553 58.2825C58.9551 83.5548 59.5526 114.097 73.8541 138.867C86.999 161.641 110.18 176.813 135.942 180.106ZM137.201 280.109C127.87 258.129 112.685 239.384 92.8917 225.521C73.0985 211.665 50.2919 203.809 26.4433 202.556C35.7807 224.536 50.9656 243.275 70.7594 257.137C90.552 270.994 113.359 278.851 137.201 280.109Z" fill="#021F02"/>
<path d="M266.557 202.556C257.219 224.536 242.034 243.275 222.241 257.137C202.447 270.994 179.647 278.85 155.799 280.109C165.13 258.129 180.315 239.384 200.108 225.522C219.902 211.665 242.708 203.808 266.557 202.556Z" fill="#46B430"/>
<path d="M220.945 58.2877C234.045 83.5599 233.447 114.096 219.146 138.866C204.851 163.63 178.701 179.419 150.263 180.709C137.163 155.437 137.761 124.901 152.062 100.131C166.357 75.3614 192.507 59.5784 220.945 58.2877ZM210.889 134.1C212.643 131.055 211.607 127.171 208.562 125.417C205.524 123.663 201.634 124.705 199.88 127.744C191.108 142.935 176.177 153.703 158.914 157.275C155.475 157.987 153.263 161.349 153.975 164.788C154.598 167.795 157.242 169.861 160.191 169.861C160.617 169.861 161.056 169.816 161.488 169.727C182.298 165.416 200.306 152.431 210.889 134.1Z" fill="#D23B6A"/>
<path d="M208.562 125.417C211.607 127.171 212.643 131.055 210.889 134.1C200.306 152.431 182.298 165.417 161.488 169.727C161.056 169.815 160.617 169.86 160.191 169.86C157.242 169.86 154.598 167.794 153.975 164.788C153.263 161.349 155.475 157.986 158.914 157.274C176.177 153.702 191.108 142.934 199.88 127.743C201.634 124.705 205.524 123.663 208.562 125.417Z" fill="#021F02"/>
<path d="M146.424 13.7819C162.251 23.761 174.976 38.1771 182.934 55.0468C168.607 61.9243 156.016 72.2913 146.519 85.3662C137.055 72.2472 124.622 61.886 109.971 54.9323C117.928 38.1066 130.634 23.7352 146.424 13.7819Z" fill="#D23B6A"/>
<path d="M139.171 97.2015C125.67 122.964 124.596 153.556 135.942 180.106C110.18 176.814 86.999 161.641 73.8541 138.867C59.5526 114.096 58.9551 83.5548 72.0552 58.2819C81.3801 58.7013 90.5136 60.6594 99.2536 64.1231C115.914 70.7153 129.65 82.118 139.171 97.2015Z" fill="#D23B6A"/>
<path d="M92.8911 225.521C112.684 239.384 127.87 258.128 137.2 280.108C113.358 278.85 90.552 270.994 70.7582 257.137C50.965 243.274 35.7796 224.536 26.4421 202.556C50.2913 203.808 73.0979 211.665 92.8911 225.521Z" fill="#46B430"/>
</g>
<defs>
<clipPath id="clip0_1_1277">
<rect width="293" height="293" fill="white"/>
</clipPath>
</defs>
</svg>
